# xmcd
#
# Track frame offsets:
#	151
#	19070
#	28263
#	48655
#
# Disc length: 931 seconds
#
# Revision: 1
# Processed by: cddbd v1.5.1PL2 Copyright (c) Steve Scherf et al.
# Submitted via: audiograbber 1.83.01
#
DISCID=2f03a104
DTITLE=Superchunk - Art Class Single
DYEAR=2001
DGENRE=Indie Rock
TTITLE0=Art Class
TTITLE1=The Hot Break
TTITLE2=A Collection of Accounts
TTITLE3=Art Class (acoustic)
EXTD=
EXTT0=
EXTT1=
EXTT2=
EXTT3=
PLAYORDER=
